<svg
   xmlns:svg="http://www.w3.org/2000/svg"
   xmlns="http://www.w3.org/2000/svg"
   version="1.2"
   width="800"
   height="400"
   viewBox="0 0 800 400"
   xml:space="preserve"
   style="overflow:visible">
	
<title>Craps table layout</title>
<desc>First published Betzaar.com under the CreativeCommons Attribution+ShareAlike licence</desc>

<rect
   width="800"
   height="400"
   x="0"
   y="0"
   id="rect3"
   style="fill:#093;fill-opacity:1" />
<text
   transform="matrix(1.25,0,0,1,176.8159,314.6299)"
   id="text5"
   style="font-size:23.25510788px;font-weight:bold;fill:#fff;font-family:Times New Roman;"><tspan
     id="tspan3380"
     style="font-size:23.25510788px;font-weight:bold;line-height:100%;letter-spacing:1.78885436px;font-family:Times New Roman;">PASS LINE</tspan></text>



<g
   id="g9">
		<rect
   width="375.00101"
   height="100"
   x="163.75"
   y="25.211"
   id="rect11"
   style="fill:none;stroke:#fff;stroke-width:2" />
		<line
   style="fill:none;stroke:#fff;stroke-width:2"
   id="line13"
   y2="117.711"
   x2="538.75098"
   y1="117.711"
   x1="163.75" />
		<line
   style="fill:none;stroke:#fff;stroke-width:2"
   id="line15"
   y2="55.835999"
   x2="538.75098"
   y1="55.835999"
   x1="163.75" />
		<line
   style="fill:none;stroke:#fff;stroke-width:2"
   id="line17"
   y2="47.396"
   x2="538.75098"
   y1="47.396"
   x1="163.75" />
		<line
   style="fill:none;stroke:#fff;stroke-width:2"
   id="line19"
   y2="125.211"
   x2="476.21701"
   y1="25.211"
   x1="476.21701" />
		<line
   style="fill:none;stroke:#fff;stroke-width:2"
   id="line21"
   y2="125.211"
   x2="413.78"
   y1="25.211"
   x1="413.78" />
		<line
   style="fill:none;stroke:#fff;stroke-width:2"
   id="line23"
   y2="125.211"
   x2="351.25"
   y1="25.211"
   x1="351.25" />
		<line
   style="fill:none;stroke:#fff;stroke-width:2"
   id="line25"
   y2="125.211"
   x2="288.72"
   y1="25.211"
   x1="288.72" />
		<line
   style="fill:none;stroke:#fff;stroke-width:2"
   id="line27"
   y2="125.211"
   x2="226.28"
   y1="25.211"
   x1="226.28" />
	</g><text
   x="183.31931"
   y="99.567902"
   id="text29"
   style="font-size:40px;font-weight:bold;fill:#ff0;font-family:Times New Roman;">4</text>


<text
   x="245.99409"
   y="99.567902"
   id="text31"
   style="font-size:40px;font-weight:bold;fill:#ff0;font-family:Times New Roman;">5</text>


<text
   x="371.45901"
   y="99.567902"
   id="text33"
   style="font-size:40px;font-weight:bold;fill:#ff0;font-family:Times New Roman;">8</text>


<text
   x="487.56451"
   y="99.567902"
   id="text35"
   style="font-size:40px;font-weight:bold;fill:#ff0;font-family:Times New Roman;">10</text>


<text
   x="252.25604"
   y="197.99071"
   transform="matrix(0.93969996,-0.34199998,0.34199998,0.93969996,0,0)"
   id="text37"
   style="font-size:22px;fill:#ff0;font-family:Times New Roman"><tspan
     id="tspan4952"
     style="font-weight:bold;">SIX</tspan></text>


<text
   x="362.96365"
   y="241.1116"
   transform="matrix(0.93969996,-0.34199998,0.34199998,0.93969996,0,0)"
   id="text39"
   style="font-size:22px;fill:#ff0;font-family:Times New Roman"><tspan
     id="tspan4954"
     style="font-weight:bold;">NINE</tspan></text>



<rect
   width="62.5"
   height="100"
   x="101.25"
   y="25.211"
   id="rect41"
   style="fill:none;stroke:#fff;stroke-width:2" />
<text
   transform="matrix(1.0976,0,0,1,192.2163,172.332)"
   id="text43"
   style="font-size:43.93149948px;font-weight:bold;fill:#f00;font-family:Times New Roman;"><tspan
     id="tspan3396"
     style="font-size:45.8162117px;font-weight:bold;fill:#f00;fill-opacity:1;font-family:Times New Roman;">COME</tspan></text>



<text
   x="270.75"
   y="238.21001"
   id="text47"
   style="font-size:24px;fill:#ff0;font-family:Times New Roman"><tspan
     id="tspan4956"
     style="font-weight:bold;">FIELD</tspan></text>




<text
   x="193.53081"
   y="223.3662"
   id="text51"
   style="font-size:22px;font-weight:bold;fill:#ff0;font-family:Times New Roman;">2</text>


<circle
   cx="203.093"
   cy="218.052"
   r="17.5"
   transform="translate(-4,-2)"
   id="circle53"
   style="fill:none;stroke:#ff0;stroke-width:2" /><text
   x="408.5"
   y="222.1162"
   id="text55"
   style="font-size:22px;font-weight:bold;fill:#ff0;font-family:Times New Roman;">12</text>


<circle
   cx="419.62399"
   cy="218.052"
   r="17.5"
   transform="translate(0,-2)"
   id="circle57"
   style="fill:none;stroke:#ff0;stroke-width:2" />
<text
   transform="matrix(-5.463924e-8,1.25,-1,-4.371139e-8,37.2515,83.5156)"
   id="text59"
   style="font-size:20px;font-weight:bold;fill:#fff;font-family:Times New Roman;"><tspan
     id="tspan3435"
     style="font-size:19.67739868px;font-weight:bold;">PASS LINE</tspan></text>



<text
   x="207.69261"
   y="110.07185"
   transform="matrix(0.70710678,0.70710678,-0.70710678,0.70710678,0,0)"
   id="text63"
   style="font-size:47.49954605px;font-weight:bold;fill:#f00;font-family:Arial-BoldMT;"><tspan
     id="tspan3384"
     style="font-size:48px;font-style:normal;font-variant:normal;font-weight:bold;font-stretch:normal;font-family:Times New Roman;">6</tspan></text>


<text
   x="265.61694"
   y="110.60246"
   transform="matrix(0.70710678,0.70710678,-0.70710678,0.70710678,0,0)"
   id="text65"
   style="font-size:47.49954605px;font-weight:bold;fill:#f00;font-family:Arial-BoldMT;"><tspan
     id="tspan3386"
     style="font-size:48px;font-style:normal;font-variant:normal;font-weight:bold;font-stretch:normal;font-family:Times New Roman;">8</tspan></text>




<rect
   width="312.5"
   height="37.5"
   x="163.75"
   y="250.211"
   id="rect75"
   style="fill:none;stroke:#fff;stroke-width:2" />
<text
   transform="translate(110.9746,51.4604)"
   id="text77"
   style="font-size:18px;font-weight:bold;font-family:Times New Roman;"><tspan
     x="0"
     y="0"
     id="tspan79"
     style="font-size:18px;font-weight:bold;fill:#fff;font-family:Times New Roman;">Don’t</tspan><tspan
     x="-0.479"
     y="17.5"
     id="tspan81"
     style="font-size:18px;font-weight:bold;fill:#fff;font-family:Times New Roman;">Come</tspan><tspan
     x="7.2930002"
     y="35"
     id="tspan83"
     style="font-size:18px;font-weight:bold;fill:#fff;font-family:Times New Roman;">Bar</tspan></text>



<g
   id="g85">
	<g
   id="g87">
		<g
   id="g89">
			<path
   d="m 148.489,95.567 h -12 c -0.83,0 -1.5,0.671 -1.5,1.5 v 12.001 c 0,0.829 0.67,1.5 1.5,1.5 h 12 c 0.83,0 1.5,-0.67 1.5,-1.5 V 97.066 c -0.001,-0.828 -0.671,-1.499 -1.5,-1.499 z m -10.456,13.5 c -0.827,0 -1.5,-0.672 -1.5,-1.5 0,-0.829 0.672,-1.501 1.5,-1.501 0.828,0 1.5,0.672 1.5,1.501 0,0.829 -0.672,1.5 -1.5,1.5 z m 0,-4.501 c -0.827,0 -1.5,-0.67 -1.5,-1.5 0,-0.829 0.672,-1.5 1.5,-1.5 0.828,0 1.5,0.671 1.5,1.5 0,0.83 -0.672,1.5 -1.5,1.5 z m 0,-4.498 c -0.827,0 -1.5,-0.673 -1.5,-1.501 0,-0.828 0.672,-1.5 1.5,-1.5 0.828,0 1.5,0.673 1.5,1.5 0,0.828 -0.672,1.501 -1.5,1.501 z m 8.82,8.999 c -0.827,0 -1.5,-0.672 -1.5,-1.5 0,-0.829 0.673,-1.501 1.5,-1.501 0.828,0 1.5,0.672 1.5,1.501 -0.001,0.829 -0.672,1.5 -1.5,1.5 z m 0,-4.501 c -0.827,0 -1.5,-0.67 -1.5,-1.5 0,-0.829 0.673,-1.5 1.5,-1.5 0.828,0 1.5,0.671 1.5,1.5 -0.001,0.83 -0.672,1.5 -1.5,1.5 z m 0,-4.498 c -0.827,0 -1.5,-0.673 -1.5,-1.501 0,-0.828 0.673,-1.5 1.5,-1.5 0.828,0 1.5,0.673 1.5,1.5 -0.001,0.828 -0.672,1.501 -1.5,1.501 z"
   id="path91"
   style="fill:#ff0" />
		</g>
	</g>
	<g
   id="g93">
		<g
   id="g95">
			<path
   d="m 128.239,95.567 h -12.001 c -0.829,0 -1.5,0.671 -1.5,1.5 v 12.001 c 0,0.829 0.67,1.5 1.5,1.5 h 12.001 c 0.828,0 1.5,-0.67 1.5,-1.5 V 97.066 c 0,-0.828 -0.672,-1.499 -1.5,-1.499 z m -10.455,13.5 c -0.828,0 -1.5,-0.672 -1.5,-1.5 0,-0.829 0.672,-1.501 1.5,-1.501 0.828,0 1.5,0.672 1.5,1.501 -0.001,0.829 -0.673,1.5 -1.5,1.5 z m 0,-4.501 c -0.828,0 -1.5,-0.67 -1.5,-1.5 0,-0.829 0.672,-1.5 1.5,-1.5 0.828,0 1.5,0.671 1.5,1.5 -0.001,0.83 -0.673,1.5 -1.5,1.5 z m 0,-4.498 c -0.828,0 -1.5,-0.673 -1.5,-1.501 0,-0.828 0.672,-1.5 1.5,-1.5 0.828,0 1.5,0.673 1.5,1.5 -0.001,0.828 -0.673,1.501 -1.5,1.501 z m 8.819,8.999 c -0.827,0 -1.5,-0.672 -1.5,-1.5 0,-0.829 0.673,-1.501 1.5,-1.501 0.829,0 1.5,0.672 1.5,1.501 0,0.829 -0.672,1.5 -1.5,1.5 z m 0,-4.501 c -0.827,0 -1.5,-0.67 -1.5,-1.5 0,-0.829 0.673,-1.5 1.5,-1.5 0.829,0 1.5,0.671 1.5,1.5 0,0.83 -0.672,1.5 -1.5,1.5 z m 0,-4.498 c -0.827,0 -1.5,-0.673 -1.5,-1.501 0,-0.828 0.673,-1.5 1.5,-1.5 0.829,0 1.5,0.673 1.5,1.5 0,0.828 -0.672,1.501 -1.5,1.501 z"
   id="path97"
   style="fill:#ff0" />
		</g>
	</g>
</g>
<text
   transform="translate(178.1113,275.4678)"
   id="text99"
   style="font-size:22.5px;font-weight:bold;fill:#fff;font-family:Times New Roman;-inkscape-font-specification:'Times New Roman, Bold Italic'"><tspan
     id="tspan3433"
     style="font-size:22px;font-style:italic;font-weight:bold;-inkscape-font-specification:'Times New Roman, Bold Italic'">Don’t Pass Bar</tspan></text>



<g
   id="g101">
	<g
   id="g103">
		<path
   d="m 361.25,262.064 h -11.998 c -0.83,0 -1.5,0.671 -1.5,1.5 v 12.001 c 0,0.827 0.67,1.499 1.5,1.499 h 11.998 c 0.831,0 1.502,-0.672 1.502,-1.499 v -12.001 c 0,-0.829 -0.671,-1.5 -1.502,-1.5 z m -10.453,13.501 c -0.827,0 -1.501,-0.672 -1.501,-1.499 0,-0.83 0.674,-1.502 1.501,-1.502 0.828,0 1.502,0.672 1.502,1.502 0,0.828 -0.674,1.499 -1.502,1.499 z m 0,-4.501 c -0.827,0 -1.501,-0.671 -1.501,-1.5 0,-0.828 0.674,-1.5 1.501,-1.5 0.828,0 1.502,0.672 1.502,1.5 0,0.83 -0.674,1.5 -1.502,1.5 z m 0,-4.5 c -0.827,0 -1.501,-0.672 -1.501,-1.501 0,-0.827 0.674,-1.499 1.501,-1.499 0.828,0 1.502,0.672 1.502,1.499 0,0.83 -0.674,1.501 -1.502,1.501 z m 8.818,9.001 c -0.826,0 -1.5,-0.672 -1.5,-1.499 0,-0.83 0.674,-1.502 1.5,-1.502 0.829,0 1.502,0.672 1.502,1.502 0,0.828 -0.673,1.499 -1.502,1.499 z m 0,-4.501 c -0.826,0 -1.5,-0.671 -1.5,-1.5 0,-0.828 0.674,-1.5 1.5,-1.5 0.829,0 1.502,0.672 1.502,1.5 0,0.83 -0.673,1.5 -1.502,1.5 z m 0,-4.5 c -0.826,0 -1.5,-0.672 -1.5,-1.501 0,-0.827 0.674,-1.499 1.5,-1.499 0.829,0 1.502,0.672 1.502,1.499 0,0.83 -0.673,1.501 -1.502,1.501 z"
   id="path105"
   style="fill:#ff0" />
	</g>
</g>
<g
   id="g107">
	<g
   id="g109">
		<path
   d="m 341.002,262.064 h -12 c -0.83,0 -1.502,0.671 -1.502,1.5 v 12.001 c 0,0.827 0.672,1.499 1.502,1.499 h 12 c 0.828,0 1.498,-0.672 1.498,-1.499 v -12.001 c 0,-0.829 -0.67,-1.5 -1.498,-1.5 z m -10.456,13.501 c -0.827,0 -1.498,-0.672 -1.498,-1.499 0,-0.83 0.671,-1.502 1.498,-1.502 0.829,0 1.501,0.672 1.501,1.502 0,0.828 -0.672,1.499 -1.501,1.499 z m 0,-4.501 c -0.827,0 -1.498,-0.671 -1.498,-1.5 0,-0.828 0.671,-1.5 1.498,-1.5 0.829,0 1.501,0.672 1.501,1.5 0,0.83 -0.672,1.5 -1.501,1.5 z m 0,-4.5 c -0.827,0 -1.498,-0.672 -1.498,-1.501 0,-0.827 0.671,-1.499 1.498,-1.499 0.829,0 1.501,0.672 1.501,1.499 0,0.83 -0.672,1.501 -1.501,1.501 z m 8.818,9.001 c -0.825,0 -1.498,-0.672 -1.498,-1.499 0,-0.83 0.673,-1.502 1.498,-1.502 0.83,0 1.501,0.672 1.501,1.502 0,0.828 -0.671,1.499 -1.501,1.499 z m 0,-4.501 c -0.825,0 -1.498,-0.671 -1.498,-1.5 0,-0.828 0.673,-1.5 1.498,-1.5 0.83,0 1.501,0.672 1.501,1.5 0,0.83 -0.671,1.5 -1.501,1.5 z m 0,-4.5 c -0.825,0 -1.498,-0.672 -1.498,-1.501 0,-0.827 0.673,-1.499 1.498,-1.499 0.83,0 1.501,0.672 1.501,1.499 0,0.83 -0.671,1.501 -1.501,1.501 z"
   id="path111"
   style="fill:#ff0" />
	</g>
</g>
<line
   x1="101.25"
   y1="125.211"
   x2="101.25"
   y2="187.711"
   id="line113"
   style="fill:none;stroke:#fff;stroke-width:2" />
<text
   x="51.626495"
   y="-78.735405"
   transform="matrix(-4.371139e-8,1,-1,-4.371139e-8,0,0)"
   id="text115"
   style="font-size:15px;font-weight:bold;fill:#fff;font-family:Times New Roman;-inkscape-font-specification:'Times New Roman, Bold Italic'"><tspan
     id="tspan3429"
     style="font-size:15px;font-style:italic;font-weight:bold;-inkscape-font-specification:'Times New Roman, Bold Italic'">Don’t Pass Bar</tspan></text>



<g
   transform="translate(0,4)"
   id="g117">
	<g
   id="g119">
		<path
   d="M 87.427,166.257 H 77.7 c -0.671,0 -1.216,0.544 -1.216,1.216 v 9.726 c 0,0.673 0.544,1.216 1.216,1.216 h 9.727 c 0.671,0 1.216,-0.543 1.216,-1.216 v -9.726 c 0,-0.672 -0.544,-1.216 -1.216,-1.216 z m -8.51,10.831 c -0.671,0 -1.216,-0.545 -1.216,-1.215 0,-0.671 0.544,-1.216 1.216,-1.216 0.672,0 1.216,0.545 1.216,1.216 0,0.67 -0.544,1.215 -1.216,1.215 z m 0,-7.147 c -0.671,0 -1.216,-0.546 -1.216,-1.216 0,-0.671 0.544,-1.216 1.216,-1.216 0.672,0 1.216,0.545 1.216,1.216 0,0.671 -0.544,1.216 -1.216,1.216 z m 3.647,7.147 c -0.672,0 -1.216,-0.545 -1.216,-1.215 0,-0.671 0.544,-1.216 1.216,-1.216 0.671,0 1.215,0.545 1.215,1.216 0.001,0.67 -0.544,1.215 -1.215,1.215 z m 0,-7.147 c -0.672,0 -1.216,-0.546 -1.216,-1.216 0,-0.671 0.544,-1.216 1.216,-1.216 0.671,0 1.215,0.545 1.215,1.216 0.001,0.671 -0.544,1.216 -1.215,1.216 z m 3.647,7.147 c -0.672,0 -1.216,-0.545 -1.216,-1.215 0,-0.671 0.544,-1.216 1.216,-1.216 0.671,0 1.216,0.545 1.216,1.216 0,0.67 -0.544,1.215 -1.216,1.215 z m 0,-7.147 c -0.672,0 -1.216,-0.546 -1.216,-1.216 0,-0.671 0.544,-1.216 1.216,-1.216 0.671,0 1.216,0.545 1.216,1.216 0,0.671 -0.544,1.216 -1.216,1.216 z"
   id="path121"
   style="fill:#ff0" />
	</g>
</g>
<g
   transform="translate(0,4)"
   id="g123">
	<g
   id="g125">
		<path
   d="M 87.427,149.844 H 77.7 c -0.671,0 -1.216,0.544 -1.216,1.216 v 9.726 c 0,0.672 0.544,1.216 1.216,1.216 h 9.727 c 0.671,0 1.216,-0.544 1.216,-1.216 v -9.726 c 0,-0.672 -0.544,-1.216 -1.216,-1.216 z m -8.51,10.832 c -0.671,0 -1.216,-0.545 -1.216,-1.216 0,-0.671 0.544,-1.216 1.216,-1.216 0.672,0 1.216,0.545 1.216,1.216 0,0.671 -0.544,1.216 -1.216,1.216 z m 0,-7.147 c -0.671,0 -1.216,-0.546 -1.216,-1.216 0,-0.672 0.544,-1.216 1.216,-1.216 0.672,0 1.216,0.544 1.216,1.216 0,0.67 -0.544,1.216 -1.216,1.216 z m 3.647,7.147 c -0.672,0 -1.216,-0.545 -1.216,-1.216 0,-0.671 0.544,-1.216 1.216,-1.216 0.671,0 1.215,0.545 1.215,1.216 0,0.671 -0.544,1.216 -1.215,1.216 z m 0,-7.147 c -0.672,0 -1.216,-0.546 -1.216,-1.216 0,-0.672 0.544,-1.216 1.216,-1.216 0.671,0 1.215,0.544 1.215,1.216 0.001,0.67 -0.544,1.216 -1.215,1.216 z m 3.647,7.147 c -0.672,0 -1.216,-0.545 -1.216,-1.216 0,-0.671 0.544,-1.216 1.216,-1.216 0.671,0 1.216,0.545 1.216,1.216 0,0.671 -0.544,1.216 -1.216,1.216 z m 0,-7.147 c -0.672,0 -1.216,-0.546 -1.216,-1.216 0,-0.672 0.544,-1.216 1.216,-1.216 0.671,0 1.216,0.544 1.216,1.216 0,0.67 -0.544,1.216 -1.216,1.216 z"
   id="path127"
   style="fill:#ff0" />
	</g>
</g>
<line
   x1="549.375"
   y1="348.91599"
   x2="774.375"
   y2="348.91599"
   id="line129"
   style="fill:none;stroke:#fff;stroke-width:2" />
<line
   x1="549.375"
   y1="305.06799"
   x2="774.375"
   y2="305.06799"
   id="line131"
   style="fill:none;stroke:#fff;stroke-width:2" />
<line
   x1="549.375"
   y1="261.22101"
   x2="774.375"
   y2="261.22101"
   id="line133"
   style="fill:none;stroke:#fff;stroke-width:2" />
<line
   x1="549.375"
   y1="217.37399"
   x2="774.375"
   y2="217.37399"
   id="line135"
   style="fill:none;stroke:#fff;stroke-width:2" />
<line
   x1="549.375"
   y1="173.52699"
   x2="774.375"
   y2="173.52699"
   id="line137"
   style="fill:none;stroke:#fff;stroke-width:2" />
<g
   id="g139">
	<line
   x1="476.25"
   y1="125.211"
   x2="476.25"
   y2="250.211"
   id="line141"
   style="fill:none;stroke:#fff;stroke-width:2" />
	<line
   x1="163.75"
   y1="250.211"
   x2="101.25"
   y2="187.711"
   id="line143"
   style="fill:none;stroke:#fff;stroke-width:2" />
	<line
   x1="63.125"
   y1="188.336"
   x2="475.625"
   y2="188.336"
   id="line145"
   style="fill:none;stroke:#fff;stroke-width:2" />
	<line
   x1="123.679"
   y1="228.504"
   x2="132.429"
   y2="219.661"
   id="line147"
   style="fill:none;stroke:#fff;stroke-width:2" />
</g>
<g
   id="g149">
	<line
   x1="63.75"
   y1="50.835999"
   x2="63.75"
   y2="250.836"
   id="line151"
   style="fill:none;stroke:#fff;stroke-width:2" />
	<line
   x1="163.75"
   y1="287.711"
   x2="101.25"
   y2="287.711"
   id="line153"
   style="fill:none;stroke:#fff;stroke-width:2" />
	<path
   d="m 63.75,250.211 c 0,20.728 16.772,37.5 37.5,37.5"
   id="path155"
   style="fill:none;stroke:#fff;stroke-width:2" />
	<line
   x1="75.914001"
   y1="276.77301"
   x2="84.664001"
   y2="267.931"
   id="line157"
   style="fill:none;stroke:#fff;stroke-width:2" />
</g>
<g
   id="g159">
	<line
   x1="100.751"
   y1="25"
   x2="25.063999"
   y2="76.928001"
   id="line161"
   style="fill:none;stroke:#fff;stroke-width:2" />
	<line
   x1="25.625"
   y1="75.835999"
   x2="25.625"
   y2="250.836"
   id="line163"
   style="fill:none;stroke:#fff;stroke-width:2" />
	<line
   x1="477.061"
   y1="325.836"
   x2="100.625"
   y2="325.836"
   id="line165"
   style="fill:none;stroke:#fff;stroke-width:2" />
	<line
   x1="476.25"
   y1="288.336"
   x2="476.25"
   y2="325.836"
   id="line167"
   style="fill:none;stroke:#fff;stroke-width:2" />
	<path
   d="m 25.625,250.836 c 0,41.455 33.545,75 75,75"
   id="path169"
   style="fill:none;stroke:#fff;stroke-width:2" />
</g>
<path
   d="m 775,368.336 c 0,3.452 -2.798,6.25 -6.25,6.25 h -212.5 c -3.452,0 -6.25,-2.798 -6.25,-6.25 v -212.5 c 0,-3.451 2.798,-6.25 6.25,-6.25 h 212.5 c 3.452,0 6.25,2.799 6.25,6.25 v 212.5 z"
   id="path171"
   style="fill:none;stroke:#fff;stroke-width:2" />






<g
   id="g189">
	<g
   id="g191">
		<g
   id="g193">
			<path
   d="m 623.201,178.588 h -12 c -0.83,0 -1.499,0.671 -1.499,1.5 v 12 c 0,0.828 0.669,1.5 1.499,1.5 h 12 c 0.83,0 1.501,-0.672 1.501,-1.5 v -12 c 0,-0.829 -0.671,-1.5 -1.501,-1.5 z m -10.41,13.5 c -0.828,0 -1.5,-0.672 -1.5,-1.5 0,-0.828 0.672,-1.5 1.5,-1.5 0.827,0 1.501,0.672 1.501,1.5 0,0.828 -0.674,1.5 -1.501,1.5 z m 4.411,-4.5 c -0.827,0 -1.501,-0.672 -1.501,-1.5 0,-0.828 0.674,-1.5 1.501,-1.5 0.827,0 1.499,0.672 1.499,1.5 0,0.828 -0.672,1.5 -1.499,1.5 z m 4.409,-4.5 c -0.828,0 -1.502,-0.672 -1.502,-1.5 0,-0.828 0.674,-1.5 1.502,-1.5 0.828,0 1.499,0.672 1.499,1.5 0,0.828 -0.671,1.5 -1.499,1.5 z"
   id="path195"
   style="fill:#ff0" />
		</g>
	</g>
	<g
   id="g197">
		<g
   id="g199">
			<path
   d="m 600.764,178.588 h -11.999 c -0.827,0 -1.499,0.671 -1.499,1.5 v 12 c 0,0.828 0.672,1.5 1.499,1.5 h 11.999 c 0.83,0 1.502,-0.672 1.502,-1.5 v -12 c 0,-0.829 -0.672,-1.5 -1.502,-1.5 z m -10.41,13.5 c -0.827,0 -1.498,-0.672 -1.498,-1.5 0,-0.828 0.671,-1.5 1.498,-1.5 0.828,0 1.502,0.672 1.502,1.5 0,0.828 -0.674,1.5 -1.502,1.5 z m 4.412,-4.5 c -0.828,0 -1.502,-0.672 -1.502,-1.5 0,-0.828 0.674,-1.5 1.502,-1.5 0.828,0 1.499,0.672 1.499,1.5 0,0.828 -0.671,1.5 -1.499,1.5 z m 4.409,-4.5 c -0.827,0 -1.501,-0.672 -1.501,-1.5 0,-0.828 0.674,-1.5 1.501,-1.5 0.827,0 1.499,0.672 1.499,1.5 0,0.828 -0.672,1.5 -1.499,1.5 z"
   id="path201"
   style="fill:#ff0" />
		</g>
	</g>
</g>
<g
   id="g203">
	<g
   id="g205">
		<g
   id="g207">
			<path
   d="m 736.775,178.588 h -12 c -0.829,0 -1.5,0.671 -1.5,1.5 v 12 c 0,0.828 0.671,1.5 1.5,1.5 h 12 c 0.83,0 1.5,-0.672 1.5,-1.5 v -12 c 0,-0.829 -0.67,-1.5 -1.5,-1.5 z m -10.409,13.5 c -0.828,0 -1.501,-0.672 -1.501,-1.5 0,-0.828 0.673,-1.5 1.501,-1.5 0.827,0 1.499,0.672 1.499,1.5 0,0.828 -0.672,1.5 -1.499,1.5 z m 0,-9 c -0.828,0 -1.501,-0.672 -1.501,-1.5 0,-0.828 0.673,-1.5 1.501,-1.5 0.827,0 1.499,0.672 1.499,1.5 0,0.828 -0.672,1.5 -1.499,1.5 z m 4.409,4.5 c -0.828,0 -1.5,-0.672 -1.5,-1.5 0,-0.828 0.672,-1.5 1.5,-1.5 0.827,0 1.5,0.672 1.5,1.5 0,0.828 -0.672,1.5 -1.5,1.5 z m 4.41,4.5 c -0.828,0 -1.501,-0.672 -1.501,-1.5 0,-0.828 0.673,-1.5 1.501,-1.5 0.827,0 1.5,0.672 1.5,1.5 0,0.828 -0.673,1.5 -1.5,1.5 z m 0,-9 c -0.828,0 -1.501,-0.672 -1.501,-1.5 0,-0.828 0.673,-1.5 1.501,-1.5 0.827,0 1.5,0.672 1.5,1.5 0,0.828 -0.673,1.5 -1.5,1.5 z"
   id="path209"
   style="fill:#ff0" />
		</g>
	</g>
	<g
   id="g211">
		<g
   id="g213">
			<path
   d="m 714.34,178.588 h -12.001 c -0.829,0 -1.5,0.671 -1.5,1.5 v 12 c 0,0.828 0.671,1.5 1.5,1.5 h 12.001 c 0.828,0 1.499,-0.672 1.499,-1.5 v -12 c 0,-0.829 -0.671,-1.5 -1.499,-1.5 z m -10.41,13.5 c -0.828,0 -1.5,-0.672 -1.5,-1.5 0,-0.828 0.672,-1.5 1.5,-1.5 0.827,0 1.5,0.672 1.5,1.5 0,0.828 -0.673,1.5 -1.5,1.5 z m 0,-9 c -0.828,0 -1.5,-0.672 -1.5,-1.5 0,-0.828 0.672,-1.5 1.5,-1.5 0.827,0 1.5,0.672 1.5,1.5 0,0.828 -0.673,1.5 -1.5,1.5 z m 4.409,4.5 c -0.828,0 -1.499,-0.672 -1.499,-1.5 0,-0.828 0.671,-1.5 1.499,-1.5 0.827,0 1.5,0.672 1.5,1.5 0,0.828 -0.673,1.5 -1.5,1.5 z m 4.409,4.5 c -0.828,0 -1.499,-0.672 -1.499,-1.5 0,-0.828 0.671,-1.5 1.499,-1.5 0.827,0 1.5,0.672 1.5,1.5 0,0.828 -0.673,1.5 -1.5,1.5 z m 0,-9 c -0.828,0 -1.499,-0.672 -1.499,-1.5 0,-0.828 0.671,-1.5 1.499,-1.5 0.827,0 1.5,0.672 1.5,1.5 0,0.828 -0.673,1.5 -1.5,1.5 z"
   id="path215"
   style="fill:#ff0" />
		</g>
	</g>
</g>
<g
   id="g217">
	<g
   id="g219">
		<g
   id="g221">
			<path
   d="m 623.201,222.465 h -12 c -0.828,0 -1.499,0.671 -1.499,1.5 v 12 c 0,0.828 0.671,1.5 1.499,1.5 h 12 c 0.83,0 1.501,-0.672 1.501,-1.5 v -12 c 0,-0.829 -0.671,-1.5 -1.501,-1.5 z m -10.455,13.5 c -0.827,0 -1.498,-0.672 -1.498,-1.5 0,-0.828 0.671,-1.5 1.498,-1.5 0.828,0 1.502,0.672 1.502,1.5 0,0.828 -0.674,1.5 -1.502,1.5 z m 0,-9 c -0.827,0 -1.498,-0.672 -1.498,-1.5 0,-0.828 0.671,-1.5 1.498,-1.5 0.828,0 1.502,0.672 1.502,1.5 0,0.828 -0.674,1.5 -1.502,1.5 z m 8.821,9 c -0.827,0 -1.501,-0.672 -1.501,-1.5 0,-0.828 0.674,-1.5 1.501,-1.5 0.827,0 1.499,0.672 1.499,1.5 0,0.828 -0.671,1.5 -1.499,1.5 z m 0,-9 c -0.827,0 -1.501,-0.672 -1.501,-1.5 0,-0.828 0.674,-1.5 1.501,-1.5 0.827,0 1.499,0.672 1.499,1.5 0,0.828 -0.671,1.5 -1.499,1.5 z"
   id="path223"
   style="fill:#ff0" />
		</g>
	</g>
	<g
   id="g225">
		<g
   id="g227">
			<path
   d="m 600.764,222.465 h -11.999 c -0.827,0 -1.499,0.671 -1.499,1.5 v 12 c 0,0.828 0.672,1.5 1.499,1.5 h 11.999 c 0.83,0 1.502,-0.672 1.502,-1.5 v -12 c 0,-0.829 -0.672,-1.5 -1.502,-1.5 z m -10.453,13.5 c -0.828,0 -1.5,-0.672 -1.5,-1.5 0,-0.828 0.672,-1.5 1.5,-1.5 0.827,0 1.501,0.672 1.501,1.5 0,0.828 -0.674,1.5 -1.501,1.5 z m 0,-9 c -0.828,0 -1.5,-0.672 -1.5,-1.5 0,-0.828 0.672,-1.5 1.5,-1.5 0.827,0 1.501,0.672 1.501,1.5 0,0.828 -0.674,1.5 -1.501,1.5 z m 8.818,9 c -0.828,0 -1.5,-0.672 -1.5,-1.5 0,-0.828 0.672,-1.5 1.5,-1.5 0.827,0 1.501,0.672 1.501,1.5 0,0.828 -0.674,1.5 -1.501,1.5 z m 0,-9 c -0.828,0 -1.5,-0.672 -1.5,-1.5 0,-0.828 0.672,-1.5 1.5,-1.5 0.827,0 1.501,0.672 1.501,1.5 0,0.828 -0.674,1.5 -1.501,1.5 z"
   id="path229"
   style="fill:#ff0" />
		</g>
	</g>
</g>
<g
   id="g231">
	<g
   id="g233">
		<g
   id="g235">
			<path
   d="m 736.775,222.465 h -12 c -0.829,0 -1.5,0.671 -1.5,1.5 v 12 c 0,0.828 0.671,1.5 1.5,1.5 h 12 c 0.828,0 1.5,-0.672 1.5,-1.5 v -12 c 0,-0.829 -0.671,-1.5 -1.5,-1.5 z m -10.41,4.5 c -0.828,0 -1.5,-0.672 -1.5,-1.5 0,-0.828 0.672,-1.5 1.5,-1.5 0.827,0 1.5,0.672 1.5,1.5 0,0.828 -0.673,1.5 -1.5,1.5 z m 8.82,9 c -0.828,0 -1.501,-0.672 -1.501,-1.5 0,-0.828 0.673,-1.5 1.501,-1.5 0.827,0 1.5,0.672 1.5,1.5 0,0.828 -0.673,1.5 -1.5,1.5 z"
   id="path237"
   style="fill:#ff0" />
		</g>
	</g>
	<g
   id="g239">
		<g
   id="g241">
			<path
   d="m 714.338,222.465 h -11.999 c -0.829,0 -1.5,0.671 -1.5,1.5 v 12 c 0,0.828 0.671,1.5 1.5,1.5 h 11.999 c 0.83,0 1.501,-0.672 1.501,-1.5 v -12 c 0,-0.829 -0.671,-1.5 -1.501,-1.5 z m -10.408,4.5 c -0.828,0 -1.5,-0.672 -1.5,-1.5 0,-0.828 0.672,-1.5 1.5,-1.5 0.827,0 1.499,0.672 1.499,1.5 0,0.828 -0.672,1.5 -1.499,1.5 z m 8.818,9 c -0.828,0 -1.5,-0.672 -1.5,-1.5 0,-0.828 0.672,-1.5 1.5,-1.5 0.827,0 1.5,0.672 1.5,1.5 0,0.828 -0.673,1.5 -1.5,1.5 z"
   id="path243"
   style="fill:#ff0" />
		</g>
	</g>
</g>
<g
   id="g245">
	<g
   id="g247">
		<g
   id="g249">
			<path
   d="m 582.814,266.106 h -11.999 c -0.829,0 -1.5,0.671 -1.5,1.501 v 11.998 c 0,0.828 0.671,1.499 1.5,1.499 h 11.999 c 0.829,0 1.5,-0.671 1.5,-1.499 v -11.998 c 0,-0.83 -0.67,-1.501 -1.5,-1.501 z m -5.999,8.999 c -0.828,0 -1.501,-0.672 -1.501,-1.5 0,-0.828 0.673,-1.5 1.501,-1.5 0.827,0 1.499,0.672 1.499,1.5 0,0.828 -0.671,1.5 -1.499,1.5 z"
   id="path251"
   style="fill:#ff0" />
		</g>
	</g>
	<g
   id="g253">
		<g
   id="g255">
			<path
   d="m 605.25,266.106 h -11.999 c -0.829,0 -1.499,0.671 -1.499,1.501 v 11.998 c 0,0.828 0.67,1.499 1.499,1.499 h 11.999 c 0.829,0 1.5,-0.671 1.5,-1.499 v -11.998 c 0,-0.83 -0.671,-1.501 -1.5,-1.501 z m -10.408,4.499 c -0.828,0 -1.501,-0.671 -1.501,-1.5 0,-0.827 0.673,-1.498 1.501,-1.498 0.827,0 1.5,0.671 1.5,1.498 0,0.83 -0.673,1.5 -1.5,1.5 z m 8.818,9 c -0.828,0 -1.501,-0.672 -1.501,-1.5 0,-0.829 0.673,-1.5 1.501,-1.5 0.827,0 1.5,0.671 1.5,1.5 0,0.829 -0.673,1.5 -1.5,1.5 z"
   id="path257"
   style="fill:#ff0" />
		</g>
	</g>
</g>
<g
   id="g259">
	<g
   id="g261">
		<g
   id="g263">
			<path
   d="m 658.23,266.106 h -12 c -0.828,0 -1.499,0.671 -1.499,1.501 v 11.998 c 0,0.828 0.671,1.499 1.499,1.499 h 12 c 0.83,0 1.501,-0.671 1.501,-1.499 v -11.998 c 0,-0.83 -0.67,-1.501 -1.501,-1.501 z m -5.999,8.999 c -0.827,0 -1.499,-0.672 -1.499,-1.5 0,-0.828 0.672,-1.5 1.499,-1.5 0.827,0 1.499,0.672 1.499,1.5 0,0.828 -0.671,1.5 -1.499,1.5 z"
   id="path265"
   style="fill:#ff0" />
		</g>
	</g>
	<g
   id="g267">
		<g
   id="g269">
			<path
   d="m 680.666,266.106 h -11.999 c -0.827,0 -1.499,0.671 -1.499,1.501 v 11.998 c 0,0.828 0.672,1.499 1.499,1.499 h 11.999 c 0.83,0 1.502,-0.671 1.502,-1.499 v -11.998 c 0,-0.83 -0.672,-1.501 -1.502,-1.501 z m -5.998,8.999 c -0.828,0 -1.499,-0.672 -1.499,-1.5 0,-0.828 0.671,-1.5 1.499,-1.5 0.828,0 1.499,0.672 1.499,1.5 0,0.828 -0.671,1.5 -1.499,1.5 z"
   id="path271"
   style="fill:#ff0" />
		</g>
	</g>
</g>
<g
   id="g273">
	<g
   id="g275">
		<g
   id="g277">
			<path
   d="m 754.674,266.105 h -11.998 c -0.83,0 -1.5,0.672 -1.5,1.5 v 12 c 0,0.828 0.67,1.5 1.5,1.5 h 11.998 c 0.83,0 1.5,-0.672 1.5,-1.5 v -12 c 0,-0.828 -0.67,-1.5 -1.5,-1.5 z m -10.453,13.5 c -0.827,0 -1.5,-0.672 -1.5,-1.499 0,-0.83 0.673,-1.5 1.5,-1.5 0.827,0 1.5,0.67 1.5,1.5 0,0.828 -0.673,1.499 -1.5,1.499 z m 0,-4.498 c -0.827,0 -1.5,-0.674 -1.5,-1.502 0,-0.828 0.673,-1.498 1.5,-1.498 0.827,0 1.5,0.67 1.5,1.498 0,0.828 -0.673,1.502 -1.5,1.502 z m 0,-4.501 c -0.827,0 -1.5,-0.673 -1.5,-1.501 0,-0.828 0.673,-1.5 1.5,-1.5 0.827,0 1.5,0.672 1.5,1.5 0,0.828 -0.673,1.501 -1.5,1.501 z m 8.818,8.999 c -0.827,0 -1.5,-0.672 -1.5,-1.499 0,-0.83 0.673,-1.5 1.5,-1.5 0.828,0 1.501,0.67 1.501,1.5 0,0.828 -0.673,1.499 -1.501,1.499 z m 0,-4.498 c -0.827,0 -1.5,-0.674 -1.5,-1.502 0,-0.828 0.673,-1.498 1.5,-1.498 0.828,0 1.501,0.67 1.501,1.498 0,0.828 -0.673,1.502 -1.501,1.502 z m 0,-4.501 c -0.827,0 -1.5,-0.673 -1.5,-1.501 0,-0.828 0.673,-1.5 1.5,-1.5 0.828,0 1.501,0.672 1.501,1.5 0,0.828 -0.673,1.501 -1.501,1.501 z"
   id="path279"
   style="fill:#ff0" />
		</g>
	</g>
	<g
   id="g281">
		<g
   id="g283">
			<path
   d="m 732.237,266.105 h -11.999 c -0.829,0 -1.5,0.672 -1.5,1.5 v 12 c 0,0.828 0.671,1.5 1.5,1.5 h 11.999 c 0.829,0 1.501,-0.672 1.501,-1.5 v -12 c 0,-0.828 -0.672,-1.5 -1.501,-1.5 z m -10.454,13.5 c -0.827,0 -1.5,-0.672 -1.5,-1.499 0,-0.83 0.673,-1.5 1.5,-1.5 0.828,0 1.5,0.67 1.5,1.5 0,0.828 -0.672,1.499 -1.5,1.499 z m 0,-4.498 c -0.827,0 -1.5,-0.674 -1.5,-1.502 0,-0.828 0.673,-1.498 1.5,-1.498 0.828,0 1.5,0.67 1.5,1.498 0,0.828 -0.672,1.502 -1.5,1.502 z m 0,-4.501 c -0.827,0 -1.5,-0.673 -1.5,-1.501 0,-0.828 0.673,-1.5 1.5,-1.5 0.828,0 1.5,0.672 1.5,1.5 0,0.828 -0.672,1.501 -1.5,1.501 z m 8.819,8.999 c -0.827,0 -1.5,-0.672 -1.5,-1.499 0,-0.83 0.673,-1.5 1.5,-1.5 0.828,0 1.5,0.67 1.5,1.5 0,0.828 -0.672,1.499 -1.5,1.499 z m 0,-4.498 c -0.827,0 -1.5,-0.674 -1.5,-1.502 0,-0.828 0.673,-1.498 1.5,-1.498 0.828,0 1.5,0.67 1.5,1.498 0,0.828 -0.672,1.502 -1.5,1.502 z m 0,-4.501 c -0.827,0 -1.5,-0.673 -1.5,-1.501 0,-0.828 0.673,-1.5 1.5,-1.5 0.828,0 1.5,0.672 1.5,1.5 0,0.828 -0.672,1.501 -1.5,1.501 z"
   id="path285"
   style="fill:#ff0" />
		</g>
	</g>
</g>
<g
   id="g287">
	<g
   id="g289">
		<g
   id="g291">
			<path
   d="m 600.764,311.088 h -11.999 c -0.83,0 -1.499,0.669 -1.499,1.499 v 11.999 c 0,0.83 0.669,1.502 1.499,1.502 h 11.999 c 0.833,0 1.502,-0.672 1.502,-1.502 v -11.999 c 0,-0.83 -0.669,-1.499 -1.502,-1.499 z m -10.453,13.498 c -0.826,0 -1.5,-0.674 -1.5,-1.496 0,-0.835 0.674,-1.504 1.5,-1.504 0.827,0 1.501,0.669 1.501,1.504 0,0.822 -0.674,1.496 -1.501,1.496 z m 0,-4.499 c -0.826,0 -1.5,-0.674 -1.5,-1.499 0,-0.828 0.674,-1.502 1.5,-1.502 0.827,0 1.501,0.674 1.501,1.502 0,0.825 -0.674,1.499 -1.501,1.499 z m 0,-4.497 c -0.826,0 -1.5,-0.672 -1.5,-1.504 0,-0.825 0.674,-1.499 1.5,-1.499 0.827,0 1.501,0.674 1.501,1.499 0,0.832 -0.674,1.504 -1.501,1.504 z m 8.818,8.996 c -0.826,0 -1.5,-0.674 -1.5,-1.496 0,-0.835 0.674,-1.504 1.5,-1.504 0.827,0 1.501,0.669 1.501,1.504 0,0.822 -0.674,1.496 -1.501,1.496 z m 0,-4.499 c -0.826,0 -1.5,-0.674 -1.5,-1.499 0,-0.828 0.674,-1.502 1.5,-1.502 0.827,0 1.501,0.674 1.501,1.502 0,0.825 -0.674,1.499 -1.501,1.499 z m 0,-4.497 c -0.826,0 -1.5,-0.672 -1.5,-1.504 0,-0.825 0.674,-1.499 1.5,-1.499 0.827,0 1.501,0.674 1.501,1.499 0,0.832 -0.674,1.504 -1.501,1.504 z"
   id="path293"
   style="fill:#ff0" />
		</g>
	</g>
	<g
   id="g295">
		<g
   id="g297">
			<path
   d="m 623.205,311.088 h -11.999 c -0.833,0 -1.504,0.669 -1.504,1.499 v 11.999 c 0,0.83 0.671,1.502 1.504,1.502 h 11.999 c 0.828,0 1.497,-0.672 1.497,-1.502 v -11.999 c 0,-0.83 -0.669,-1.499 -1.497,-1.499 z m -10.417,13.498 c -0.82,0 -1.494,-0.674 -1.494,-1.496 0,-0.835 0.674,-1.504 1.494,-1.504 0.837,0 1.507,0.669 1.507,1.504 0,0.822 -0.67,1.496 -1.507,1.496 z m 0,-8.996 c -0.82,0 -1.494,-0.672 -1.494,-1.504 0,-0.825 0.674,-1.499 1.494,-1.499 0.837,0 1.507,0.674 1.507,1.499 0,0.832 -0.67,1.504 -1.507,1.504 z m 4.414,4.497 c -0.823,0 -1.497,-0.674 -1.497,-1.499 0,-0.828 0.674,-1.502 1.497,-1.502 0.83,0 1.504,0.674 1.504,1.502 0,0.825 -0.674,1.499 -1.504,1.499 z m 4.409,4.499 c -0.825,0 -1.499,-0.674 -1.499,-1.496 0,-0.835 0.674,-1.504 1.499,-1.504 0.832,0 1.504,0.669 1.504,1.504 0,0.822 -0.672,1.496 -1.504,1.496 z m 0,-8.996 c -0.825,0 -1.499,-0.672 -1.499,-1.504 0,-0.825 0.674,-1.499 1.499,-1.499 0.832,0 1.504,0.674 1.504,1.499 0,0.832 -0.672,1.504 -1.504,1.504 z"
   id="path299"
   style="fill:#ff0" />
		</g>
	</g>
</g>
<g
   id="g301">
	<g
   id="g303">
		<g
   id="g305">
			<path
   d="m 714.341,311.088 h -11.998 c -0.834,0 -1.504,0.669 -1.504,1.499 v 11.999 c 0,0.83 0.67,1.502 1.504,1.502 h 11.998 c 0.829,0 1.498,-0.672 1.498,-1.502 v -11.999 c 0,-0.83 -0.669,-1.499 -1.498,-1.499 z m -10.459,13.498 c -0.821,0 -1.494,-0.674 -1.494,-1.496 0,-0.835 0.673,-1.504 1.494,-1.504 0.834,0 1.505,0.669 1.505,1.504 0,0.822 -0.671,1.496 -1.505,1.496 z m 0,-4.499 c -0.821,0 -1.494,-0.674 -1.494,-1.499 0,-0.828 0.673,-1.502 1.494,-1.502 0.834,0 1.505,0.674 1.505,1.502 0,0.825 -0.671,1.499 -1.505,1.499 z m 0,-4.497 c -0.821,0 -1.494,-0.672 -1.494,-1.504 0,-0.825 0.673,-1.499 1.494,-1.499 0.834,0 1.505,0.674 1.505,1.499 0,0.832 -0.671,1.504 -1.505,1.504 z m 8.818,8.996 c -0.82,0 -1.494,-0.674 -1.494,-1.496 0,-0.835 0.674,-1.504 1.494,-1.504 0.837,0 1.507,0.669 1.507,1.504 0,0.822 -0.67,1.496 -1.507,1.496 z m 0,-4.499 c -0.82,0 -1.494,-0.674 -1.494,-1.499 0,-0.828 0.674,-1.502 1.494,-1.502 0.837,0 1.507,0.674 1.507,1.502 0,0.825 -0.67,1.499 -1.507,1.499 z m 0,-4.497 c -0.82,0 -1.494,-0.672 -1.494,-1.504 0,-0.825 0.674,-1.499 1.494,-1.499 0.837,0 1.507,0.674 1.507,1.499 0,0.832 -0.67,1.504 -1.507,1.504 z"
   id="path307"
   style="fill:#ff0" />
		</g>
	</g>
	<g
   id="g309">
		<g
   id="g311">
			<path
   d="M 736.771,311.088 H 724.77 c -0.826,0 -1.495,0.669 -1.495,1.499 v 11.999 c 0,0.83 0.669,1.502 1.495,1.502 h 12.001 c 0.831,0 1.504,-0.672 1.504,-1.502 v -11.999 c 0,-0.83 -0.672,-1.499 -1.504,-1.499 z m -10.406,13.498 c -0.833,0 -1.507,-0.674 -1.507,-1.496 0,-0.835 0.674,-1.504 1.507,-1.504 0.824,0 1.498,0.669 1.498,1.504 0,0.822 -0.674,1.496 -1.498,1.496 z m 0,-8.996 c -0.833,0 -1.507,-0.672 -1.507,-1.504 0,-0.825 0.674,-1.499 1.507,-1.499 0.824,0 1.498,0.674 1.498,1.499 0,0.832 -0.674,1.504 -1.498,1.504 z m 4.41,4.497 c -0.832,0 -1.504,-0.674 -1.504,-1.499 0,-0.828 0.672,-1.502 1.504,-1.502 0.821,0 1.495,0.674 1.495,1.502 10e-4,0.825 -0.673,1.499 -1.495,1.499 z m 4.41,4.499 c -0.834,0 -1.504,-0.674 -1.504,-1.496 0,-0.835 0.67,-1.504 1.504,-1.504 0.823,0 1.497,0.669 1.497,1.504 0,0.822 -0.674,1.496 -1.497,1.496 z m 0,-8.996 c -0.834,0 -1.504,-0.672 -1.504,-1.504 0,-0.825 0.67,-1.499 1.504,-1.499 0.823,0 1.497,0.674 1.497,1.499 0,0.832 -0.674,1.504 -1.497,1.504 z"
   id="path313"
   style="fill:#ff0" />
		</g>
	</g>
</g>
<g
   id="g315">
	<line
   x1="662.5"
   y1="173.961"
   x2="662.5"
   y2="261.461"
   id="line317"
   style="fill:none;stroke:#fff;stroke-width:2" />
	<line
   x1="662.5"
   y1="304.586"
   x2="662.5"
   y2="348.336"
   id="line319"
   style="fill:none;stroke:#fff;stroke-width:2" />
	<line
   x1="625"
   y1="260.836"
   x2="625"
   y2="305.836"
   id="line321"
   style="fill:none;stroke:#fff;stroke-width:2" />
	<line
   x1="700"
   y1="260.836"
   x2="700"
   y2="305.836"
   id="line323"
   style="fill:none;stroke:#fff;stroke-width:2" />
</g>
<text
   transform="translate(581.1924,211.9863)"
   id="text325"
   style="font-size:18px;font-weight:bold;fill:#fff;font-family:Times New Roman;">9 to 1</text>



<text
   transform="translate(699.1416,211.9873)"
   id="text327"
   style="font-size:18px;font-weight:bold;fill:#fff;font-family:Times New Roman;">7 to 1</text>



<text
   transform="translate(581.1924,255.7148)"
   id="text329"
   style="font-size:18px;font-weight:bold;fill:#fff;font-family:Times New Roman;">9 to 1</text>



<text
   transform="translate(699.1416,255.7148)"
   id="text331"
   style="font-size:18px;font-weight:bold;fill:#fff;font-family:Times New Roman;">7 to 1</text>



<text
   transform="translate(563.2432,299.7832)"
   id="text333"
   style="font-size:18px;font-weight:bold;fill:#fff;font-family:Times New Roman;">15 to 1</text>



<text
   transform="translate(638.6602,299.7832)"
   id="text335"
   style="font-size:18px;font-weight:bold;fill:#fff;font-family:Times New Roman;">30 to 1</text>



<text
   transform="translate(712.666,299.7842)"
   id="text337"
   style="font-size:18px;font-weight:bold;fill:#fff;font-family:Times New Roman;">30 to 1</text>



<text
   transform="translate(581.1934,343.207)"
   id="text339"
   style="font-size:18px;font-weight:bold;fill:#fff;font-family:Times New Roman;">15 to 1</text>



<text
   transform="translate(694.7666,343.207)"
   id="text341"
   style="font-size:18px;font-weight:bold;fill:#fff;font-family:Times New Roman;">15 to 1</text>



<circle
   cx="534.20898"
   cy="237.27"
   r="10"
   id="circle343"
   style="fill:none;stroke:#fff;stroke-width:1.5" />
<circle
   cx="534.20898"
   cy="262.20499"
   r="10"
   id="circle345"
   style="fill:none;stroke:#fff;stroke-width:1.5" />
<circle
   cx="534.20898"
   cy="287.14099"
   r="10"
   id="circle347"
   style="fill:none;stroke:#fff;stroke-width:1.5" />
<circle
   cx="534.20898"
   cy="312.07599"
   r="10"
   id="circle349"
   style="fill:none;stroke:#fff;stroke-width:1.5" />
<circle
   cx="534.20898"
   cy="337.013"
   r="10"
   id="circle351"
   style="fill:none;stroke:#fff;stroke-width:1.5" />
<circle
   cx="534.20898"
   cy="361.948"
   r="10"
   id="circle353"
   style="fill:none;stroke:#fff;stroke-width:1.5" />
<circle
   cx="534.20898"
   cy="212.334"
   r="10"
   id="circle355"
   style="fill:none;stroke:#fff;stroke-width:1.5" />
<circle
   cx="509.20901"
   cy="233.104"
   r="10"
   id="circle357"
   style="fill:none;stroke:#fff;stroke-width:1.5" />
<circle
   cx="509.20901"
   cy="260.12201"
   r="10"
   id="circle359"
   style="fill:none;stroke:#fff;stroke-width:1.5" />
<circle
   cx="509.20901"
   cy="287.14099"
   r="10"
   id="circle361"
   style="fill:none;stroke:#fff;stroke-width:1.5" />
<circle
   cx="509.20901"
   cy="314.16"
   r="10"
   id="circle363"
   style="fill:none;stroke:#fff;stroke-width:1.5" />
<circle
   cx="509.20901"
   cy="341.17999"
   r="10"
   id="circle365"
   style="fill:none;stroke:#fff;stroke-width:1.5" />
<circle
   cx="509.20901"
   cy="368.198"
   r="10"
   id="circle367"
   style="fill:none;stroke:#fff;stroke-width:1.5" />
<circle
   cx="509.20901"
   cy="206.084"
   r="10"
   id="circle369"
   style="fill:none;stroke:#fff;stroke-width:1.5" />
<text
   transform="translate(504.7969,211.2012)"
   id="text371"
   style="font-size:15px;fill:#fff;font-family:Times New Roman">E</text>



<text
   transform="translate(528.5781,217.9639)"
   id="text373"
   style="font-size:15px;fill:#fff;font-family:Times New Roman">C</text>



<text
   transform="translate(504.7969,238.5)"
   id="text375"
   style="font-size:15px;fill:#fff;font-family:Times New Roman">E</text>



<text
   transform="translate(504.7969,265.1738)"
   id="text377"
   style="font-size:15px;fill:#fff;font-family:Times New Roman">E</text>



<text
   transform="translate(504.7969,291.7109)"
   id="text379"
   style="font-size:15px;fill:#fff;font-family:Times New Roman">E</text>



<text
   transform="translate(504.7969,319.0322)"
   id="text381"
   style="font-size:15px;fill:#fff;font-family:Times New Roman">E</text>



<text
   transform="translate(504.7969,345.6621)"
   id="text383"
   style="font-size:15px;fill:#fff;font-family:Times New Roman">E</text>



<text
   transform="translate(504.7969,373.7246)"
   id="text385"
   style="font-size:15px;fill:#fff;font-family:Times New Roman">E</text>



<text
   transform="translate(528.5781,242.2529)"
   id="text387"
   style="font-size:15px;fill:#fff;font-family:Times New Roman">C</text>



<text
   transform="translate(528.5781,268.0479)"
   id="text389"
   style="font-size:15px;fill:#fff;font-family:Times New Roman">C</text>



<text
   transform="translate(528.5781,317.5537)"
   id="text391"
   style="font-size:15px;fill:#fff;font-family:Times New Roman">C</text>



<text
   transform="translate(528.5781,291.4814)"
   id="text393"
   style="font-size:15px;fill:#fff;font-family:Times New Roman">C</text>



<text
   transform="translate(528.5781,341.4961)"
   id="text395"
   style="font-size:15px;fill:#fff;font-family:Times New Roman">C</text>



<text
   transform="translate(528.5781,366.457)"
   id="text397"
   style="font-size:15px;fill:#fff;font-family:Times New Roman">C</text>






<text
   x="249.01422"
   y="91.076859"
   transform="matrix(0.70710678,0.70710678,-0.70710678,0.70710678,0,0)"
   id="text3453"
   xml:space="preserve"
   style="font-size:19px;font-style:normal;font-variant:normal;font-weight:normal;font-stretch:normal;line-height:85.00000238%;letter-spacing:0px;word-spacing:0px;fill:#000000;fill-opacity:1;stroke:none;font-family:Verdana;-inkscape-font-specification:Verdana"><tspan
     x="249.01422"
     y="91.076859"
     id="tspan3455"
     style="font-size:19px;text-align:center;line-height:85.00000238%;text-anchor:middle;fill:#fff;font-family:Times New Roman;-inkscape-font-specification:Times New Roman">B</tspan><tspan
     x="249.01422"
     y="107.22686"
     id="tspan3457"
     style="font-size:19px;text-align:center;line-height:85.00000238%;text-anchor:middle;fill:#fff;font-family:Times New Roman;-inkscape-font-specification:Times New Roman">I</tspan><tspan
     x="249.01422"
     y="123.37686"
     id="tspan3459"
     style="font-size:19px;text-align:center;line-height:85.00000238%;text-anchor:middle;fill:#fff;font-family:Times New Roman;-inkscape-font-specification:Times New Roman">G</tspan></text>
<text
   x="543.58563"
   y="384.24026"
   transform="scale(1.0452007,0.95675404)"
   id="text4455"
   xml:space="preserve"
   style="font-size:16.72321129px;font-style:normal;font-variant:normal;font-weight:bold;font-stretch:normal;line-height:125%;letter-spacing:0px;word-spacing:0px;fill:#000000;fill-opacity:1;stroke:none;font-family:Times New Roman;"><tspan
     x="543.58563"
     y="384.24026"
     id="tspan4457"><tspan
       id="tspan4469"
       style="font-weight:bold;fill:#fff;">7 to 1  </tspan><tspan
       id="tspan4471"
       style="font-weight:bold;fill:#f00;"><tspan
         id="tspan4958"
         style="font-style:italic;-inkscape-font-specification:'Times New Roman, Bold Italic'">ANY CRAPS</tspan></tspan><tspan
       id="tspan4473"
       style="font-weight:bold;fill:#fff;">  7 to 1 </tspan></tspan></text>
<text
   x="509.47934"
   y="185.82854"
   transform="scale(1.111653,0.89956129)"
   id="text4459"
   xml:space="preserve"
   style="font-size:13.33983517px;font-style:normal;font-variant:normal;font-weight:bold;font-stretch:normal;line-height:125%;letter-spacing:0px;word-spacing:0px;fill:#000000;fill-opacity:1;stroke:none;font-family:Times New Roman;"><tspan
     x="509.47934"
     y="185.82854"
     id="tspan4461"
     style="font-size:17.78644943px;font-weight:bold;"><tspan
       id="tspan4463"
       style="font-weight:bold;fill:#fff;">4 to 1   </tspan><tspan
       id="tspan4465"
       style="font-style:italic;font-weight:bold;fill:#f00;-inkscape-font-specification:'Times New Roman, Bold Italic'">SEVEN</tspan><tspan
       id="tspan4467"
       style="font-weight:bold;fill:#fff;">   4 to 1   </tspan></tspan></text>
<text
   x="224.70264"
   y="214.76233"
   id="text4720"
   xml:space="preserve"
   style="font-size:12px;font-style:normal;font-variant:normal;font-weight:bold;font-stretch:normal;line-height:125%;letter-spacing:0px;word-spacing:0px;fill:#000000;fill-opacity:1;stroke:none;font-family:Times New Roman;"><tspan
     x="224.70264"
     y="214.76233"
     id="tspan4722"
     style="font-size:21px;font-weight:bold;fill:#ff0;">• 3 • 4 • 9 • 10 • 11 •</tspan></text>
</svg>
